<svg width="18" height="20" viewBox="0 0 18 20" fill="none" xmlns="http://www.w3.org/2000/svg">
<path d="M13.8218 3.1344C13.0887 2.29394 12.648 1.19805 12.648 0H11.7293C11.9659 1.3095 12.7454 2.43326 13.8218 3.1344Z" fill="black"/>
<path d="M5.3218 9.90477C3.73038 9.90477 2.43591 11.2004 2.43591 12.7931C2.43591 13.903 3.06691 14.8688 3.98556 15.3517C3.64223 14.8781 3.43808 14.2977 3.43808 13.6661C3.43808 12.0734 4.73255 10.7778 6.324 10.7778C6.62093 10.7778 6.90856 10.8288 7.17768 10.9124V7.40192C6.89927 7.36473 6.61628 7.34149 6.324 7.34149C6.27294 7.34149 6.22654 7.34614 6.1755 7.34614V10.0394C5.90176 9.95583 5.61873 9.90477 5.3218 9.90477Z" fill="black"/>
<path d="M16.4245 4.67608V7.34614C14.6429 7.34614 12.9912 6.77501 11.6456 5.80911V12.7977C11.6456 16.2851 8.8108 19.127 5.32172 19.127C3.97621 19.127 2.7235 18.6998 1.69812 17.98C2.8534 19.2198 4.50049 20 6.32392 20C9.80829 20 12.6478 17.1627 12.6478 13.6707V6.68211C13.9933 7.64801 15.645 8.21913 17.4267 8.21913V4.78293C17.0787 4.78293 16.7446 4.74574 16.4245 4.67608Z" fill="black"/>
<path d="M11.6456 12.7977V5.80911C12.9912 6.77501 14.6429 7.34614 16.4245 7.34614V4.67608C15.3945 4.45788 14.4899 3.90063 13.8218 3.1344C12.7454 2.43326 11.9704 1.3095 11.7245 0H9.20978L9.20513 13.7775C9.14949 15.3192 7.87817 16.5591 6.32393 16.5591C5.35884 16.5591 4.50977 16.0808 3.98085 15.3564C3.06219 14.8688 2.4312 13.9076 2.4312 12.7977C2.4312 11.205 3.72567 9.90942 5.31708 9.90942C5.61402 9.90942 5.90168 9.96048 6.17079 10.0441V7.35079C2.75598 7.42509 0 10.2298 0 13.6707C0 15.3331 0.644918 16.847 1.69812 17.98C2.7235 18.6998 3.97621 19.127 5.32172 19.127C8.80614 19.127 11.6456 16.2851 11.6456 12.7977Z" fill="black"/>
</svg>
