<svg width="23" height="23" viewBox="0 0 23 23" fill="none" xmlns="http://www.w3.org/2000/svg">
<path d="M0.25 22.75L1.83796 16.9778C0.862251 15.2844 0.349858 13.3639 0.352363 11.4096C0.341063 5.25118 5.34224 0.25 11.4887 0.25C14.4719 0.25 17.2729 1.40657 19.382 3.51632C20.4215 4.55049 21.2455 5.78068 21.8062 7.13561C22.3669 8.49053 22.6531 9.94326 22.6483 11.4096C22.6483 17.5561 17.6471 22.5572 11.5 22.5572C9.62888 22.5572 7.80295 22.0919 6.16979 21.1966L0.25 22.75ZM6.43102 19.1892L6.77134 19.3933C8.19981 20.2385 9.8289 20.685 11.4887 20.6861C16.5922 20.6861 20.7546 16.5244 20.7546 11.4202C20.7546 8.94823 19.7908 6.61248 18.0439 4.86632C17.1849 4.00247 16.1635 3.31716 15.0384 2.84989C13.9134 2.38261 12.7069 2.14261 11.4887 2.14372C6.37385 2.14439 2.21285 6.30606 2.21285 11.4103C2.21285 13.1564 2.70074 14.8693 3.63065 16.3436L3.84601 16.6953L2.9048 20.1198L6.43168 19.1899L6.43102 19.1892Z" fill="black"/>
<path fill-rule="evenodd" clip-rule="evenodd" d="M8.71026 6.73744C8.5062 6.27216 8.27954 6.26086 8.08678 6.26086C7.91662 6.24956 7.73449 6.24956 7.54173 6.24956C7.36093 6.24956 7.0545 6.31736 6.79394 6.60118C6.53272 6.88434 5.81883 7.55369 5.81883 8.92563C5.81883 10.2982 6.81654 11.625 6.95281 11.8064C7.0884 11.9879 8.88043 14.8906 11.716 16.014C14.0744 16.9439 14.551 16.7624 15.0614 16.7052C15.5713 16.6487 16.7059 16.0366 16.9439 15.3785C17.1705 14.7324 17.1705 14.1654 17.1027 14.0518C17.0349 13.9388 16.8415 13.8703 16.5696 13.7227C16.2858 13.5871 14.9252 12.9065 14.6646 12.8154C14.4034 12.725 14.2219 12.6798 14.0405 12.9517C13.859 13.2355 13.3259 13.859 13.1564 14.0405C12.9969 14.2219 12.8274 14.2445 12.5549 14.1083C12.2717 13.9727 11.3757 13.6775 10.3095 12.725C9.48131 11.9872 8.92563 11.0693 8.75546 10.7974C8.59727 10.5136 8.73286 10.366 8.88043 10.2298C9.00539 10.1055 9.16425 9.9014 9.30052 9.74254C9.43611 9.58301 9.48131 9.45871 9.58368 9.27725C9.67408 9.09579 9.62888 8.92563 9.56108 8.79003C9.49261 8.66507 8.96019 7.29247 8.71026 6.73678V6.73744Z" fill="black"/>
</svg>
